# xmcd
#
# Track frame offsets:
#	150
#	16163
#	22411
#	30647
#	45807
#	66432
#	85466
#	106070
#	115513
#	127296
#	137796
#	149512
#	162291
#	169334
#	173938
#	188650
#	201252
#
# Disc length: 2803 seconds
#
# Revision: 0
# Processed by: cddbd v1.5.2PL0 Copyright (c) Steve Scherf et al.
# Submitted via: EasyCDDAExtractor 16.0.8.2
#
DISCID=f20af111
DTITLE=Συλλογικός δίσκος - Το Πάσχα των Ελλήνων
DYEAR=2014
DGENRE=Ποικίλη
TTITLE0=Χορός ψαλτών υπό π. Αθαν. Τύμπα - Αλληλούϊα-Ιδού ο Νυμφίος [πλ. δ', τρ
TTITLE0=ίφωνος]
TTITLE1=Χορός ψαλτών υπό π. Αθαν. Τύμπα - Τον νυμφώνά Σου βλέπω [πλ. δ', τρίφω
TTITLE1=νος]
TTITLE2=Χορός ψαλτών υπό π. Αθαν. Τύμπα - Ότε οι ένδοξοι μαθηταί [πλ. δ΄, τρίφ
TTITLE2=ωνος]
TTITLE3=Χορός ψαλτών υπό π. Αθαν. Τύμπα - Διά ξύλου ο Αδάμδ', λέγετος]
TTITLE4=Χορός ψαλτών υπό π. Αθαν. Τύμπα - Η Ζωή εν τάφω [Εγκώμια Α, πλ. α', αν
TTITLE4=ανες]
TTITLE5=Χορός ψαλτών υπό π. Αθαν. Τύμπα - Αξιόν εστι [Εγκώμια Β, πλ. α, ανανες
TTITLE5=]
TTITLE6=Χορός ψαλτών υπό π. Αθαν. Τύμπα - Αι γενεαί πάσαι [Εγκώμια Γ, ήχος γ']
TTITLE7=Χορός ψαλτών υπό π. Αθαν. Τύμπα - Τον Κύριον υμνείτε [ύμνος τριών παίδ
TTITLE7=ων, ήχος α']
TTITLE8=Χορός ψαλτών υπό π. Αθαν. Τύμπα - Αναστάσεως ημέρα [ήχος α']
TTITLE9=Χορός ψαλτών υπό π. Αθαν. Τύμπα - Χριστός Ανέστη [πλ. α', ανανες]
TTITLE10=Χορωδία - Κάλαντα Λαζάρου Τρικάλων Θεσσαλίας [ήχ. γ', φρ.4σ.]
TTITLE11=Χορωδία - Κάλαντα Λαζάρου Θεσσαλίας [ήχ. α' δώριος, 5σ.]
TTITLE12=Χορωδία - Κάλαντα Λαζάρου Αγράφων Δυτ. Θεσσαλίας [ήχ. γ']
TTITLE13=Χορωδία - Κάλαντα Λαζάρου Στερεάς Ελλάδος
TTITLE14=Χορωδία - Κάλαντα Μ. Παρασκευής Θεσσαλίας [ήχ. γ' φρ. 6σ.]
TTITLE15=Άγνωστος - Σήμερα Γιώργη μ' Πασχαλιά [Ηπείρου, ήχ. βαρύς, 6σ.]
TTITLE16=Χορωδία - Σήμερα Χριστός Ανέστη [Πελοποννήσου, ήχ. δ', 7σ.]
EXTD=
EXTT0=
EXTT1=
EXTT2=
EXTT3=
EXTT4=
EXTT5=
EXTT6=
EXTT7=
EXTT8=
EXTT9=
EXTT10=
EXTT11=
EXTT12=
EXTT13=
EXTT14=
EXTT15=
EXTT16=
PLAYORDER=
